<svg width="68" height="60" viewBox="0 0 68 60" fill="none" xmlns="http://www.w3.org/2000/svg">
<g filter="url(#filter0_d_37:28)">
<path d="M34.96 24C34.7 24.008 34.45 24.116 34.266 24.304L28.99 29.564L25.74 26.324C24.83 25.376 23.36 26.84 24.31 27.748L28.276 31.704C28.67 32.098 29.31 32.098 29.706 31.704L35.696 25.73C36.356 25.09 35.87 24 34.962 24H34.96ZM5 32H11C11.554 32 12 32.446 12 33C12 33.554 11.554 34 11 34H5C4.446 34 4 33.554 4 33C4 32.446 4.446 32 5 32ZM5 24H11C11.554 24 12 24.446 12 25C12 25.554 11.554 26 11 26H5C4.446 26 4 25.554 4 25C4 24.446 4.446 24 5 24ZM5 16H11C11.554 16 12 16.446 12 17C12 17.554 11.554 18 11 18H5C4.446 18 4 17.554 4 17C4 16.446 4.446 16 5 16ZM53 38C50.25 38 48 40.25 48 43C48 45.75 50.25 48 53 48C55.75 48 58 45.75 58 43C58 40.25 55.75 38 53 38ZM53 40C54.668 40 56 41.332 56 43C56 44.668 54.668 46 53 46C51.332 46 50 44.668 50 43C50 41.332 51.332 40 53 40ZM27 38C24.25 38 22 40.25 22 43C22 45.75 24.25 48 27 48C29.75 48 32 45.75 32 43C32 40.25 29.75 38 27 38ZM27 40C28.668 40 30 41.332 30 43C30 44.668 28.668 46 27 46C25.332 46 24 44.668 24 43C24 41.332 25.332 40 27 40ZM17 12C15.356 12 14 13.356 14 15V37C14 38.644 15.356 40 17 40H21C22.352 40.02 22.352 37.98 21 38H17C16.428 38 16 37.572 16 37V15C16 14.428 16.428 14 17 14H43C43.572 14 44 14.428 44 15V38H33C31.68 38 31.704 40.02 33 40H47C48.32 40 48.308 38 47 38H46V20H54.454L62 31.792V37C62 37.572 61.572 38 61 38H59C57.692 38 57.692 40 59 40H61C62.644 40 64 38.644 64 37V31.5C64 31.31 63.946 31.12 63.844 30.96L55.844 18.46C55.66 18.174 55.344 18 55 18H46V15C46 13.356 44.644 12 43 12H17Z" fill="#F37321"/>
</g>
<defs>
<filter id="filter0_d_37:28" x="0" y="0" width="68" height="68" filterUnits="userSpaceOnUse" color-interpolation-filters="sRGB">
<feFlood flood-opacity="0" result="BackgroundImageFix"/>
<feColorMatrix in="SourceAlpha" type="matrix" values="0 0 0 0 0 0 0 0 0 0 0 0 0 0 0 0 0 0 127 0" result="hardAlpha"/>
<feOffset dy="4"/>
<feGaussianBlur stdDeviation="2"/>
<feComposite in2="hardAlpha" operator="out"/>
<feColorMatrix type="matrix" values="0 0 0 0 0 0 0 0 0 0 0 0 0 0 0 0 0 0 0.25 0"/>
<feBlend mode="normal" in2="BackgroundImageFix" result="effect1_dropShadow_37:28"/>
<feBlend mode="normal" in="SourceGraphic" in2="effect1_dropShadow_37:28" result="shape"/>
</filter>
</defs>
</svg>
